# xmcd
#
# Track frame offsets:
#	150
#	29597
#	55480
#	84365
#	117675
#	138162
#	164772
#	184637
#	207502
#	232285
#	260850
#	286555
#
# Disc length: 4264 seconds
#
# Revision: 1
# Processed by: cddbd v1.5.1PL0 Copyright (c) Steve Scherf et al.
# Submitted via: audiograbber 1.83.01
#
DISCID=bb10a60c
DTITLE=Carl Carlton and the Songdogs - Cahoots and Roots  CD 1
DYEAR=2004
DGENRE=Blues
TTITLE0=God's gift to man
TTITLE1=Let it rain
TTITLE2=Kingston
TTITLE3=Love understanding
TTITLE4=Sneakin' Sally through the alley
TTITLE5=Deep colours bleed
TTITLE6=Good to be alive
TTITLE7=Days of magic
TTITLE8=Florence
TTITLE9=The downfall
TTITLE10=Lifelong guarantee
TTITLE11=Coming home
EXTD=
EXTT0=
EXTT1=
EXTT2=
EXTT3=
EXTT4=
EXTT5=
EXTT6=
EXTT7=
EXTT8=
EXTT9=
EXTT10=
EXTT11=
PLAYORDER=
